<svg width="269" height="55" viewBox="0 0 269 55" fill="none" xmlns="http://www.w3.org/2000/svg">
<g clip-path="url(#clip0)">
<path d="M51.1274 4.81142H30.9169C29.2359 4.81142 27.873 6.17417 27.873 7.85533V19.2874C27.873 20.9684 29.2358 22.3313 30.9169 22.3313H38.1059L36.9441 27.0211C36.7928 27.6323 37.4961 28.0922 37.9953 27.7087L44.9958 22.3313H51.1275C52.8085 22.3313 54.1714 20.9685 54.1714 19.2874V7.85533C54.1713 6.17428 52.8084 4.81142 51.1274 4.81142Z" fill="#88DBFD"/>
<path d="M37.8427 23.3935L36.944 27.0211C36.7927 27.6322 37.496 28.0922 37.9952 27.7087L44.9958 22.3313H39.2255L37.8427 23.3935Z" fill="#5ABFE9"/>
<path d="M51.1274 4.81142H45.3571C47.0383 4.81142 48.401 6.17417 48.401 7.85532V19.2874C48.401 20.9684 47.0383 22.3313 45.3571 22.3313H51.1274C52.8084 22.3313 54.1713 20.9685 54.1713 19.2874V7.85532C54.1713 6.17428 52.8084 4.81142 51.1274 4.81142Z" fill="#5ABFE9"/>
<path d="M43.2783 40.8676C43.1268 38.2847 41.4869 36.1796 39.0464 35.0369C36.0591 33.6383 27.924 31.522 27.924 31.522C27.1379 31.376 26.5677 30.6901 26.5677 29.8906V25.2402H22.1454H17.7232V29.8906C17.7232 30.6901 17.153 31.376 16.3669 31.522C16.3669 31.522 8.23171 33.6383 5.24442 35.0369C2.8039 36.1796 1.164 38.2847 1.01253 40.8676L0.82884 51.9542C0.813909 53.187 1.80917 54.1943 3.04195 54.1943H41.2487C42.4816 54.1943 43.4767 53.187 43.4619 51.9542L43.2783 40.8676Z" fill="#FCC18B"/>
<path d="M43.2783 40.8676C43.1269 38.2847 41.487 36.1796 39.0465 35.0369C36.0592 33.6383 27.924 31.522 27.924 31.522C27.1379 31.376 26.5677 30.6901 26.5677 29.8906V25.2402H22.1454H20.7974V32.6795C20.7974 33.4791 21.3676 34.165 22.1537 34.311C22.1537 34.311 30.2889 36.4273 33.2762 37.8259C35.7167 38.9686 37.3566 41.0737 37.5081 43.6566L37.6826 54.1943H41.2487C42.4816 54.1943 43.4768 53.187 43.4619 51.9542L43.2783 40.8676Z" fill="#EAAB65"/>
<path d="M12.9765 13.4674H11.8154C11.3948 13.4674 11.0074 13.6095 10.6985 13.8482C10.1622 14.2628 9.92682 14.9601 10.048 15.6272L10.504 18.1379C10.858 19.9986 12.9793 19.1484 12.9793 19.1484L12.9765 13.4674Z" fill="#EAAB65"/>
<path d="M31.3141 13.4674H32.4752C32.8958 13.4674 33.2833 13.6095 33.5921 13.8482C34.1285 14.2628 34.3638 14.9601 34.2427 15.6272L33.7866 18.1379C33.4327 19.9986 31.3113 19.1484 31.3113 19.1484L31.3141 13.4674Z" fill="#FCC18B"/>
<path d="M28.5808 3.92596C27.071 2.53001 24.9488 1.31152 22.1454 1.2779C19.342 1.31152 17.2198 2.53001 15.7099 3.92596C13.7842 5.70647 12.7409 8.35077 12.7409 11.0797L12.7435 20.5944C12.7435 25.0925 18.5902 29.7509 22.1454 29.7509C25.7005 29.7509 31.5473 25.0925 31.5473 20.5944L31.5498 11.0797C31.5497 8.35077 30.5064 5.70647 28.5808 3.92596Z" fill="#FCC18B"/>
<path d="M28.5809 3.92596C27.0711 2.53001 24.9488 1.31152 22.1454 1.2779C21.088 1.29058 20.1276 1.47201 19.2603 1.76774C20.6923 2.25608 21.8703 3.05648 22.8106 3.92596C24.7363 5.70647 25.7795 8.35077 25.7795 11.0797L25.7769 20.5944C25.7769 23.9979 22.4295 27.4927 19.2602 28.9922C20.2794 29.4744 21.2803 29.7509 22.1453 29.7509C25.7005 29.7509 31.5472 25.0925 31.5472 20.5944L31.5498 11.0797C31.5498 8.35077 30.5065 5.70647 28.5809 3.92596Z" fill="#EAAB65"/>
<path d="M27.963 0.805664H22.1454H16.3277C13.3339 0.805664 10.907 3.23265 10.907 6.22639V13.7062C10.907 13.7062 12.3997 13.6724 13.3589 14.6217C13.5587 14.8194 13.8981 14.675 13.8981 14.3939V8.53166C13.8981 7.20833 14.9709 6.13562 16.2942 6.13562H18.4713C19.0424 6.13562 19.5958 6.33306 20.0378 6.69442L20.2514 6.86898C20.7858 7.30598 21.455 7.54467 22.1454 7.54467C22.8358 7.54467 23.5049 7.30598 24.0393 6.86898L24.2529 6.69442C24.6949 6.33306 25.2483 6.13562 25.8194 6.13562H27.9965C29.3198 6.13562 30.3926 7.20833 30.3926 8.53166V14.394C30.3926 14.675 30.732 14.8195 30.9318 14.6218C31.891 13.6725 33.3837 13.7063 33.3837 13.7063V6.22649C33.3837 3.23265 30.9567 0.805664 27.963 0.805664Z" fill="#426175"/>
<path d="M27.963 0.805664H25.9505C26.9633 1.99783 27.5984 3.78834 27.6146 6.13562H27.9966C29.3198 6.13562 30.3926 7.20833 30.3926 8.53166V14.394C30.3926 14.675 30.7321 14.8195 30.9319 14.6218C31.8911 13.6725 33.3838 13.7063 33.3838 13.7063V6.22649C33.3837 3.23265 30.9567 0.805664 27.963 0.805664Z" fill="#2C4456"/>
<path d="M39.0463 35.0369C37.3079 34.2231 33.8268 33.1663 31.2195 32.4248L30.6555 32.6384C25.1721 34.7154 19.1185 34.7154 13.6352 32.6384L13.0713 32.4248C10.4639 33.1663 6.98282 34.223 5.24442 35.0369C2.8039 36.1796 1.164 38.2847 1.01253 40.8676L0.82884 51.9543C0.813909 53.187 1.80917 54.1943 3.04195 54.1943H41.2487C42.4816 54.1943 43.4767 53.187 43.4619 51.9543L43.2783 40.8676C43.1267 38.2847 41.4868 36.1796 39.0463 35.0369Z" fill="#33BCA5"/>
<path d="M35.7097 51.4162H8.17716C7.3397 51.4162 6.64468 50.7689 6.58506 49.9336L5.45895 34.1344C5.39311 33.2106 6.12486 32.4248 7.05105 32.4248H36.8359C37.7621 32.4248 38.4939 33.2106 38.428 34.1344L37.3019 49.9336C37.2423 50.7689 36.5472 51.4162 35.7097 51.4162Z" fill="#F2F2F2"/>
<path d="M36.8359 32.4248H31.0234C31.9496 32.4248 32.6814 33.2106 32.6155 34.1344L31.3837 51.4162H35.7098C36.5473 51.4162 37.2424 50.7689 37.3019 49.9336L38.428 34.1344C38.4938 33.2106 37.7621 32.4248 36.8359 32.4248Z" fill="#CDD6DF"/>
<path d="M37.6842 54.1943H6.60656C5.83935 54.1943 5.21748 53.5725 5.21748 52.8053C5.21748 52.0381 5.83935 51.4162 6.60656 51.4162H37.6842C38.4514 51.4162 39.0733 52.0381 39.0733 52.8053C39.0733 53.5725 38.4514 54.1943 37.6842 54.1943Z" fill="#CDD6DF"/>
<path d="M22.1453 44.7807C23.3731 44.7807 24.3684 43.7854 24.3684 42.5576C24.3684 41.3299 23.3731 40.3345 22.1453 40.3345C20.9175 40.3345 19.9222 41.3299 19.9222 42.5576C19.9222 43.7854 20.9175 44.7807 22.1453 44.7807Z" fill="white"/>
<path d="M39.8754 12.5551C39.8754 12.1471 39.4971 11.8285 39.1986 11.8285C39.1289 11.8285 39.0592 11.8384 39.0094 11.8783L36.4812 13.5206C36.2523 13.67 36.1726 13.9088 36.1726 14.078C36.1726 14.2473 36.2523 14.4862 36.4812 14.6356L39.0094 16.2779C39.0592 16.3176 39.1288 16.3276 39.1986 16.3276C39.4971 16.3276 39.8754 16.0091 39.8754 15.6009C39.8754 15.4318 39.8058 15.2824 39.6963 15.2128L37.9443 14.078L39.6963 12.9433C39.8057 12.8736 39.8754 12.7244 39.8754 12.5551Z" fill="black"/>
<path d="M44.8823 9.15097C44.7032 9.15097 44.5439 9.2305 44.4643 9.39976L40.9705 16.5763C40.9406 16.6361 40.9206 16.7057 40.9206 16.7655C40.9206 17.0142 41.1397 17.293 41.4782 17.293C41.6673 17.293 41.8565 17.1934 41.9261 17.0442L45.4299 9.86756C45.4596 9.80781 45.4696 9.73817 45.4696 9.67842C45.4695 9.35999 45.161 9.15097 44.8823 9.15097Z" fill="black"/>
<path d="M49.9092 13.5206L47.381 11.8783C47.3313 11.8384 47.2616 11.8285 47.1919 11.8285C46.8932 11.8285 46.5149 12.1471 46.5149 12.5551C46.5149 12.7244 46.5846 12.8736 46.6942 12.9433L48.446 14.078L46.6942 15.2128C46.5846 15.2824 46.5149 15.4318 46.5149 15.6009C46.5149 16.0091 46.8932 16.3276 47.1919 16.3276C47.2615 16.3276 47.3313 16.3176 47.381 16.2779L49.9092 14.6356C50.1382 14.4862 50.2177 14.2474 50.2177 14.078C50.2177 13.9089 50.1382 13.67 49.9092 13.5206Z" fill="black"/>
<path d="M51.1489 3.98429H33.7944C32.8978 1.64334 30.6272 -0.0231552 27.9746 -0.0231552H16.3346C12.9 -0.0231552 10.1056 2.7712 10.1056 6.20585V13.2787C9.41139 13.877 9.08824 14.8129 9.25933 15.7547L9.71681 18.2729C9.88124 19.1374 10.3404 19.5818 10.6967 19.8024C11.095 20.0489 11.537 20.1304 11.9428 20.1322L11.9429 20.5797C11.9429 22.8501 13.2674 25.3523 15.5769 27.4447C16.0117 27.8385 16.4638 28.2017 16.9246 28.5301V29.8799C16.9246 30.2913 16.631 30.6443 16.2265 30.7195C16.2078 30.723 16.1891 30.7272 16.1708 30.7319C16.1567 30.7355 14.773 31.0962 12.9645 31.6091H7.05399C6.38942 31.6091 5.74859 31.8881 5.29562 32.3744C4.84275 32.8607 4.61008 33.5199 4.65737 34.1828L4.6736 34.4106C2.0298 35.7361 0.366746 38.1128 0.208232 40.8143C0.207588 40.8256 0.207158 40.8369 0.206943 40.8482L0.0231741 51.9432C0.0133946 52.7567 0.3229 53.5236 0.894625 54.1023C1.46656 54.6812 2.22958 55 3.04332 55H41.266C42.0797 55 42.8427 54.6812 43.4145 54.1024C43.9864 53.5236 44.2959 52.7568 44.286 51.9397L44.1023 40.8482C44.1021 40.8369 44.1017 40.8256 44.101 40.8143C43.938 38.0349 42.1823 35.5991 39.4044 34.2985C39.3532 34.2745 39.3 34.2501 39.245 34.2253L39.248 34.1829C39.2952 33.52 39.0625 32.8608 38.6098 32.3745C38.1568 31.8882 37.5159 31.6092 36.8514 31.6092H31.3449C29.5364 31.0963 28.1526 30.7356 28.1386 30.732C28.1201 30.7273 28.1015 30.7231 28.0828 30.7196C27.6782 30.6445 27.3847 30.2915 27.3847 29.88V28.5302C27.8455 28.2018 28.2977 27.8387 28.7325 27.4448C30.2003 26.115 31.2702 24.6197 31.8551 23.1235H37.0918L36.1772 26.8155C36.0247 27.4311 36.269 28.0536 36.7999 28.4008C37.0491 28.5639 37.3287 28.6449 37.6071 28.6449C37.9219 28.6449 38.2353 28.5415 38.5021 28.3365L45.2884 23.1235H51.1488C53.2724 23.1235 55 21.3959 55 19.2723V7.83548C55.0001 5.71193 53.2725 3.98429 51.1489 3.98429ZM32.3681 14.6712C32.6761 14.5661 32.9679 14.5233 33.1582 14.5059C33.4111 14.7304 33.5306 15.1005 33.4641 15.4665L33.0091 17.9717C32.9427 18.3214 32.8084 18.4044 32.7642 18.4317C32.6706 18.4897 32.5326 18.5195 32.3672 18.5213L32.3681 14.6712ZM11.7176 6.20585C11.7176 3.66006 13.7888 1.58885 16.3346 1.58885H27.9747C30.5205 1.58885 32.5918 3.65996 32.5918 6.20585V12.9589C32.1928 13.0294 31.6962 13.1646 31.2114 13.4231V8.5121C31.2114 6.74587 29.7746 5.30904 28.0084 5.30904H25.8302C25.0752 5.30904 24.3374 5.57223 23.7527 6.05013L23.5392 6.22477C23.1497 6.5433 22.6579 6.71869 22.1545 6.71869C21.6512 6.71869 21.1595 6.5433 20.77 6.22487L20.5563 6.05002C19.9718 5.57223 19.234 5.30893 18.4789 5.30893H16.3009C14.5347 5.30893 13.0978 6.74577 13.0978 8.51199V13.423C12.6131 13.1645 12.1164 13.0292 11.7174 12.9588V6.20585H11.7176ZM11.5452 18.4318C11.501 18.4045 11.3668 18.3215 11.3014 17.9782L10.8452 15.4667C10.7788 15.1009 10.898 14.7312 11.1505 14.5065C11.3407 14.5237 11.6327 14.566 11.9412 14.671L11.9422 18.5214C11.777 18.5196 11.6389 18.4898 11.5452 18.4318ZM4.41363 52.8042C4.41363 53.0063 4.44115 53.202 4.49241 53.388H3.04332C2.66386 53.388 2.30814 53.2394 2.04151 52.9694C1.77489 52.6996 1.63056 52.342 1.63507 51.9663L1.81852 40.8924C1.93749 38.957 3.01011 37.2793 4.79987 36.1821L5.78395 49.9886C5.802 50.242 5.8596 50.4842 5.95031 50.7096C5.06059 50.9902 4.41363 51.823 4.41363 52.8042ZM38.1214 49.9887L39.1214 35.9594C41.1436 37.0445 42.3635 38.8209 42.4908 40.8923L42.6742 51.9628C42.6787 52.342 42.5344 52.6996 42.2678 52.9694C42.0012 53.2394 41.6454 53.388 41.266 53.388H39.817C39.8683 53.2021 39.8957 53.0063 39.8957 52.8042C39.8957 51.6905 39.0623 50.768 37.9865 50.6273C38.0592 50.4257 38.1056 50.2115 38.1214 49.9887ZM38.2837 52.8042C38.2837 53.1261 38.0218 53.388 37.7001 53.388H6.6093C6.28743 53.388 6.02564 53.1261 6.02564 52.8042C6.02564 52.4825 6.28754 52.2206 6.6093 52.2206H37.7002C38.0219 52.2207 38.2837 52.4825 38.2837 52.8042ZM37.4301 33.473C37.5813 33.6355 37.656 33.8468 37.6401 34.0682L36.5135 49.8741C36.4843 50.2859 36.1378 50.6086 35.7248 50.6086H8.18057C7.76758 50.6086 7.42121 50.2859 7.39176 49.874L6.26519 34.0683C6.24939 33.8468 6.32397 33.6355 6.47528 33.4732C6.6266 33.3107 6.83207 33.2213 7.05399 33.2213H36.8515C37.0732 33.2213 37.2789 33.3107 37.4301 33.473ZM26.4808 31.6092H17.8284C18.2694 31.1607 18.5365 30.5468 18.5365 29.88V29.5193C19.8075 30.1771 21.0703 30.5463 22.1546 30.5463C23.239 30.5463 24.5017 30.1772 25.7727 29.5193V29.88C25.7727 30.5468 26.0399 31.1607 26.4808 31.6092ZM27.6502 26.2502C25.8504 27.8807 23.6933 28.9343 22.1546 28.9343C20.616 28.9343 18.4588 27.8807 16.6592 26.2502C14.6863 24.4628 13.5548 22.3961 13.5548 20.5796L13.5534 15.5014C13.5638 15.5018 13.5742 15.5019 13.5847 15.5019C13.7304 15.5019 13.8775 15.4734 14.018 15.4147C14.4384 15.2393 14.7099 14.8318 14.7099 14.3767V8.5121C14.7099 7.63484 15.4236 6.92105 16.301 6.92105H18.479C18.8632 6.92105 19.2386 7.05495 19.5359 7.29804L19.7497 7.47289C20.4264 8.02602 21.2805 8.33069 22.1545 8.33069C23.0285 8.33069 23.8827 8.02602 24.5596 7.47278L24.7731 7.29815C25.0705 7.05495 25.4459 6.92105 25.8301 6.92105H28.0083C28.8855 6.92105 29.5993 7.63484 29.5993 8.5121V14.3768C29.5993 14.8319 29.8709 15.2394 30.2913 15.4148C30.4417 15.4777 30.5999 15.5059 30.7558 15.5016L30.7545 20.5798C30.7546 22.396 29.6229 24.4628 27.6502 26.2502ZM53.3881 19.2723C53.3881 20.507 52.3836 21.5115 51.1489 21.5115H45.0147C44.8372 21.5115 44.6645 21.5702 44.5238 21.6783L37.8385 26.8136L38.9043 22.5114C38.964 22.2708 38.9095 22.0161 38.7567 21.8208C38.604 21.6257 38.3698 21.5115 38.122 21.5115H32.2948C32.3423 21.1978 32.3666 20.8868 32.3666 20.58L32.3667 20.1323C32.7725 20.1305 33.2145 20.049 33.6129 19.8025C33.969 19.5819 34.4283 19.1375 34.5939 18.2665L35.0501 15.7547C35.2212 14.8128 34.8979 13.8766 34.2038 13.2788V6.20585C34.2038 6.00027 34.1938 5.79694 34.1742 5.5963H51.1489C52.3836 5.5963 53.3881 6.60079 53.3881 7.83548V19.2723Z" fill="black"/>
<path d="M22.1546 45.5824C23.8254 45.5824 25.1847 44.2232 25.1847 42.5524C25.1847 40.8816 23.8254 39.5224 22.1546 39.5224C20.4838 39.5224 19.1246 40.8816 19.1246 42.5524C19.1246 44.2232 20.4838 45.5824 22.1546 45.5824ZM22.1546 41.1344C22.9366 41.1344 23.5727 41.7705 23.5727 42.5524C23.5727 43.3343 22.9366 43.9704 22.1546 43.9704C21.3727 43.9704 20.7366 43.3343 20.7366 42.5524C20.7366 41.7705 21.3727 41.1344 22.1546 41.1344Z" fill="black"/>
</g>
<path d="M78.2881 17.4775L76.2373 38.5713H72.3701C72.3408 37.7119 72.3066 36.9062 72.2676 36.1543C72.2383 35.3926 72.1943 34.665 72.1357 33.9717C72.0771 33.2783 72.0088 32.5996 71.9307 31.9355C71.8623 31.2715 71.7793 30.5928 71.6816 29.8994C71.5938 29.2061 71.4912 28.4883 71.374 27.7461C71.2568 26.9941 71.1299 26.1934 70.9932 25.3438C70.8076 26.4375 70.5488 28.0781 70.2168 30.2656C69.8848 32.4434 69.4844 35.1631 69.0156 38.4248L64.958 38.6299L63.4932 17.5654L67.1846 17.4775C67.1748 18.083 67.1699 18.7422 67.1699 19.4551C67.1602 20.0703 67.1553 20.7783 67.1553 21.5791C67.1553 22.3701 67.1553 23.2148 67.1553 24.1133C67.1553 24.8262 67.1553 25.5488 67.1553 26.2812C67.1553 27.0137 67.1553 27.7363 67.1553 28.4492C67.165 29.1523 67.1699 29.8311 67.1699 30.4854C67.1797 31.1396 67.1943 31.7354 67.2139 32.2725L69.2207 19.5137H72.6045L74.2012 31.6719C74.2207 30.9492 74.2402 30.1875 74.2598 29.3867C74.2891 28.5762 74.3135 27.7607 74.333 26.9404C74.3525 26.1201 74.3672 25.3096 74.377 24.5088C74.3965 23.708 74.416 22.9414 74.4355 22.209C74.4746 20.5 74.5088 18.7959 74.5381 17.0967L78.2881 17.4775ZM85.4951 30.1631C85.1924 30.1436 84.8848 30.1289 84.5723 30.1191C84.2598 30.1094 83.9473 30.1045 83.6348 30.1045C83.459 30.1045 83.2734 30.1094 83.0781 30.1191C82.8926 30.1289 82.707 30.1338 82.5215 30.1338L82.4629 35.3633C83.2637 35.3438 84.04 35.3047 84.792 35.2461C85.5537 35.1875 86.3594 35.0947 87.209 34.9678V38.0293C86.6621 38.0098 86.1299 37.9951 85.6123 37.9854C85.1045 37.9756 84.5967 37.9707 84.0889 37.9707C83.3271 37.9707 82.5752 37.9805 81.833 38C81.0908 38.0293 80.3242 38.0684 79.5332 38.1172C79.6211 36.3008 79.6895 34.5039 79.7383 32.7266C79.7969 30.9395 79.8262 29.1377 79.8262 27.3213C79.8262 25.583 79.8018 23.8594 79.7529 22.1504C79.7139 20.4316 79.6406 18.7031 79.5332 16.9648C80.6855 17.0527 81.7842 17.0967 82.8291 17.0967C83.4932 17.0967 84.1523 17.082 84.8066 17.0527C85.4707 17.0137 86.1787 16.9648 86.9307 16.9062V20.2754C86.3252 20.168 85.7246 20.085 85.1289 20.0264C84.543 19.9678 83.957 19.9385 83.3711 19.9385H82.7998C82.7021 21.1592 82.6338 22.375 82.5947 23.5859C82.5654 24.7969 82.541 26.0127 82.5215 27.2334C82.7754 27.2529 83.0293 27.2627 83.2832 27.2627C83.5469 27.2627 83.8154 27.2627 84.0889 27.2627C84.3135 27.2627 84.543 27.2627 84.7773 27.2627C85.0117 27.2627 85.251 27.2529 85.4951 27.2334V30.1631ZM97.6387 22.7656C97.6387 23.3711 97.5703 23.9961 97.4336 24.6406C97.3066 25.2852 97.1016 25.9053 96.8184 26.501C96.5449 27.0967 96.1934 27.6436 95.7637 28.1416C95.334 28.6396 94.8213 29.0449 94.2256 29.3574C94.8018 29.6113 95.2559 29.9287 95.5879 30.3096C95.9297 30.6904 96.1885 31.0859 96.3643 31.4961C96.54 31.8965 96.6523 32.2822 96.7012 32.6533C96.75 33.0146 96.7744 33.3076 96.7744 33.5322C96.7744 34.2744 96.6621 34.9141 96.4375 35.4512C96.2227 35.9785 95.9443 36.4277 95.6025 36.7988C95.2607 37.1602 94.875 37.4531 94.4453 37.6777C94.0254 37.8926 93.6055 38.0586 93.1855 38.1758C92.7754 38.293 92.3896 38.3662 92.0283 38.3955C91.667 38.4346 91.3789 38.4541 91.1641 38.4541C90.8906 38.4443 90.6123 38.4199 90.3291 38.3809C90.085 38.3418 89.8213 38.2832 89.5381 38.2051C89.2646 38.1367 89.0156 38.0293 88.791 37.8828C88.8496 36.0273 88.8789 34.1768 88.8789 32.3311C88.8789 29.8213 88.8203 27.3408 88.7031 24.8896C88.5957 22.4385 88.4346 19.9678 88.2197 17.4775C88.6689 17.3408 89.1133 17.2334 89.5527 17.1553C90.002 17.0771 90.4072 17.0186 90.7686 16.9795C91.1885 16.9404 91.5889 16.916 91.9697 16.9062C92.2725 16.9062 92.6191 16.9453 93.0098 17.0234C93.4102 17.0918 93.8203 17.2188 94.2402 17.4043C94.6602 17.5801 95.0703 17.8145 95.4707 18.1074C95.8809 18.3906 96.2471 18.752 96.5693 19.1914C96.8916 19.6211 97.1504 20.1338 97.3457 20.7295C97.541 21.3154 97.6387 21.9941 97.6387 22.7656ZM94.7969 23.4248C94.7969 23.4346 94.7969 23.3516 94.7969 23.1758C94.7969 22.9902 94.7725 22.7607 94.7236 22.4873C94.6846 22.2041 94.6113 21.8965 94.5039 21.5645C94.4062 21.2324 94.2549 20.9199 94.0498 20.627C93.8447 20.334 93.5762 20.0801 93.2441 19.8652C92.9219 19.6406 92.5166 19.5039 92.0283 19.4551C91.9697 21.0664 91.9111 22.6729 91.8525 24.2744C91.8037 25.876 91.7646 27.4824 91.7354 29.0938C92.0869 28.9668 92.3994 28.7861 92.6729 28.5518C92.9561 28.3174 93.2002 28.0586 93.4053 27.7754C93.6201 27.4824 93.8008 27.1748 93.9473 26.8525C94.0938 26.5205 94.2207 26.1934 94.3281 25.8711C94.5723 25.1191 94.7285 24.3037 94.7969 23.4248ZM93.9766 33.1367C93.957 32.6582 93.8594 32.2236 93.6836 31.833C93.6055 31.667 93.5127 31.501 93.4053 31.335C93.2979 31.1592 93.1611 31.0029 92.9951 30.8662C92.8389 30.7197 92.6533 30.5977 92.4385 30.5C92.2236 30.3926 91.9795 30.3145 91.7061 30.2656C91.6768 31.291 91.6523 32.3115 91.6328 33.3271C91.6133 34.333 91.6035 35.3486 91.6035 36.374C91.8965 36.2666 92.1553 36.1396 92.3799 35.9932C92.6045 35.8369 92.7998 35.6758 92.9658 35.5098C93.1318 35.334 93.2686 35.1533 93.376 34.9678C93.4932 34.7822 93.5908 34.6016 93.6689 34.4258C93.8447 34.0156 93.9473 33.5859 93.9766 33.1367ZM101.975 36.7988C101.975 37.043 101.926 37.2725 101.828 37.4873C101.74 37.6924 101.618 37.873 101.462 38.0293C101.306 38.1855 101.12 38.3076 100.905 38.3955C100.7 38.4932 100.48 38.542 100.246 38.542C100.002 38.542 99.7725 38.4932 99.5576 38.3955C99.3525 38.3076 99.1719 38.1855 99.0156 38.0293C98.8594 37.873 98.7324 37.6924 98.6348 37.4873C98.5469 37.2725 98.5029 37.043 98.5029 36.7988C98.5029 36.5645 98.5469 36.3398 98.6348 36.125C98.7324 35.9102 98.8594 35.7246 99.0156 35.5684C99.1719 35.4121 99.3525 35.29 99.5576 35.2021C99.7725 35.1045 100.002 35.0557 100.246 35.0557C100.48 35.0557 100.7 35.1045 100.905 35.2021C101.12 35.29 101.306 35.4121 101.462 35.5684C101.618 35.7246 101.74 35.9102 101.828 36.125C101.926 36.3398 101.975 36.5645 101.975 36.7988ZM111.145 16.9648C110.266 19.9434 109.45 22.9072 108.698 25.8564C107.956 28.8057 107.321 31.7744 106.794 34.7627C106.911 34.7822 107.028 34.7871 107.146 34.7773C107.272 34.7676 107.404 34.7627 107.541 34.7627C108.068 34.7627 108.586 34.7529 109.094 34.7334C109.611 34.7041 110.134 34.665 110.661 34.6162L110.72 38.0293C109.694 37.9219 108.674 37.8486 107.658 37.8096C106.643 37.7607 105.603 37.7363 104.538 37.7363C104.196 37.7363 103.845 37.7363 103.483 37.7363C103.132 37.7363 102.785 37.7461 102.443 37.7656C103.449 34.8652 104.377 31.9307 105.227 28.9619C106.076 25.9932 106.809 22.9463 107.424 19.8213C106.75 19.8506 106.071 19.8994 105.388 19.9678C104.714 20.0361 104.021 20.1191 103.308 20.2168L103.22 16.9941C103.825 17.0234 104.426 17.0479 105.021 17.0674C105.617 17.0869 106.218 17.0967 106.823 17.0967C108.269 17.0967 109.709 17.0527 111.145 16.9648ZM116.125 16.9648C116.027 18.8984 115.944 20.8174 115.876 22.7217C115.808 24.6162 115.759 26.5205 115.729 28.4346C115.974 28.4541 116.218 28.4639 116.462 28.4639C116.716 28.4639 116.965 28.4639 117.209 28.4639C117.521 28.4639 117.839 28.459 118.161 28.4492C118.493 28.4395 118.825 28.4248 119.157 28.4053C119.177 27.9756 119.187 27.5557 119.187 27.1455C119.187 26.7256 119.187 26.2959 119.187 25.8564C119.187 24.3721 119.172 22.8926 119.143 21.418C119.113 19.9434 119.064 18.459 118.996 16.9648H122.6C122.424 19.3184 122.287 21.6572 122.189 23.9814C122.102 26.2959 122.058 28.6299 122.058 30.9834C122.058 32.1357 122.072 33.2832 122.102 34.4258C122.131 35.5684 122.17 36.7207 122.219 37.8828H118.879C118.928 36.7207 118.972 35.5635 119.011 34.4111C119.05 33.2588 119.089 32.1064 119.128 30.9541C118.571 30.9248 118.015 30.9004 117.458 30.8809C116.911 30.8516 116.364 30.8369 115.817 30.8369H115.7V33.8545C115.7 34.5381 115.7 35.2119 115.7 35.876C115.7 36.54 115.71 37.209 115.729 37.8828H112.375C112.424 36.4766 112.453 35.0898 112.463 33.7227C112.482 32.3457 112.492 30.9639 112.492 29.5771C112.492 25.3779 112.404 21.1738 112.229 16.9648H116.125ZM130.29 30.1631C129.987 30.1436 129.68 30.1289 129.367 30.1191C129.055 30.1094 128.742 30.1045 128.43 30.1045C128.254 30.1045 128.068 30.1094 127.873 30.1191C127.688 30.1289 127.502 30.1338 127.316 30.1338L127.258 35.3633C128.059 35.3438 128.835 35.3047 129.587 35.2461C130.349 35.1875 131.154 35.0947 132.004 34.9678V38.0293C131.457 38.0098 130.925 37.9951 130.407 37.9854C129.899 37.9756 129.392 37.9707 128.884 37.9707C128.122 37.9707 127.37 37.9805 126.628 38C125.886 38.0293 125.119 38.0684 124.328 38.1172C124.416 36.3008 124.484 34.5039 124.533 32.7266C124.592 30.9395 124.621 29.1377 124.621 27.3213C124.621 25.583 124.597 23.8594 124.548 22.1504C124.509 20.4316 124.436 18.7031 124.328 16.9648C125.48 17.0527 126.579 17.0967 127.624 17.0967C128.288 17.0967 128.947 17.082 129.602 17.0527C130.266 17.0137 130.974 16.9648 131.726 16.9062V20.2754C131.12 20.168 130.52 20.085 129.924 20.0264C129.338 19.9678 128.752 19.9385 128.166 19.9385H127.595C127.497 21.1592 127.429 22.375 127.39 23.5859C127.36 24.7969 127.336 26.0127 127.316 27.2334C127.57 27.2529 127.824 27.2627 128.078 27.2627C128.342 27.2627 128.61 27.2627 128.884 27.2627C129.108 27.2627 129.338 27.2627 129.572 27.2627C129.807 27.2627 130.046 27.2529 130.29 27.2334V30.1631ZM140.998 38.0293C140.451 38.0098 139.919 37.9951 139.401 37.9854C138.894 37.9756 138.386 37.9707 137.878 37.9707C137.116 37.9707 136.364 37.9805 135.622 38C134.88 38.0293 134.113 38.0684 133.322 38.1172C133.41 36.3008 133.479 34.5039 133.527 32.7266C133.586 30.9395 133.615 29.1377 133.615 27.3213C133.615 25.583 133.591 23.8594 133.542 22.1504C133.503 20.4316 133.43 18.7031 133.322 16.9648C133.42 16.9746 133.532 16.9795 133.659 16.9795C133.767 16.9893 133.898 16.9941 134.055 16.9941C134.211 16.9941 134.387 16.9941 134.582 16.9941C134.895 16.9941 135.231 16.9893 135.593 16.9795C135.964 16.96 136.335 16.9355 136.706 16.9062C136.579 18.3125 136.486 19.792 136.428 21.3447C136.379 22.8975 136.345 24.4697 136.325 26.0615C136.315 27.6436 136.306 29.2256 136.296 30.8076C136.296 32.3799 136.281 33.8984 136.252 35.3633C137.053 35.3438 137.829 35.3047 138.581 35.2461C139.343 35.1875 140.148 35.0947 140.998 34.9678V38.0293ZM148.132 30.1631C147.829 30.1436 147.521 30.1289 147.209 30.1191C146.896 30.1094 146.584 30.1045 146.271 30.1045C146.096 30.1045 145.91 30.1094 145.715 30.1191C145.529 30.1289 145.344 30.1338 145.158 30.1338L145.1 35.3633C145.9 35.3438 146.677 35.3047 147.429 35.2461C148.19 35.1875 148.996 35.0947 149.846 34.9678V38.0293C149.299 38.0098 148.767 37.9951 148.249 37.9854C147.741 37.9756 147.233 37.9707 146.726 37.9707C145.964 37.9707 145.212 37.9805 144.47 38C143.728 38.0293 142.961 38.0684 142.17 38.1172C142.258 36.3008 142.326 34.5039 142.375 32.7266C142.434 30.9395 142.463 29.1377 142.463 27.3213C142.463 25.583 142.438 23.8594 142.39 22.1504C142.351 20.4316 142.277 18.7031 142.17 16.9648C143.322 17.0527 144.421 17.0967 145.466 17.0967C146.13 17.0967 146.789 17.082 147.443 17.0527C148.107 17.0137 148.815 16.9648 149.567 16.9062V20.2754C148.962 20.168 148.361 20.085 147.766 20.0264C147.18 19.9678 146.594 19.9385 146.008 19.9385H145.437C145.339 21.1592 145.271 22.375 145.231 23.5859C145.202 24.7969 145.178 26.0127 145.158 27.2334C145.412 27.2529 145.666 27.2627 145.92 27.2627C146.184 27.2627 146.452 27.2627 146.726 27.2627C146.95 27.2627 147.18 27.2627 147.414 27.2627C147.648 27.2627 147.888 27.2529 148.132 27.2334V30.1631ZM158.869 16.9648C157.99 19.9434 157.175 22.9072 156.423 25.8564C155.681 28.8057 155.046 31.7744 154.519 34.7627C154.636 34.7822 154.753 34.7871 154.87 34.7773C154.997 34.7676 155.129 34.7627 155.266 34.7627C155.793 34.7627 156.311 34.7529 156.818 34.7334C157.336 34.7041 157.858 34.665 158.386 34.6162L158.444 38.0293C157.419 37.9219 156.398 37.8486 155.383 37.8096C154.367 37.7607 153.327 37.7363 152.263 37.7363C151.921 37.7363 151.569 37.7363 151.208 37.7363C150.856 37.7363 150.51 37.7461 150.168 37.7656C151.174 34.8652 152.102 31.9307 152.951 28.9619C153.801 25.9932 154.533 22.9463 155.148 19.8213C154.475 19.8506 153.796 19.8994 153.112 19.9678C152.438 20.0361 151.745 20.1191 151.032 20.2168L150.944 16.9941C151.55 17.0234 152.15 17.0479 152.746 17.0674C153.342 17.0869 153.942 17.0967 154.548 17.0967C155.993 17.0967 157.434 17.0527 158.869 16.9648ZM170.573 16.877C170.446 18.8398 170.349 20.7881 170.28 22.7217C170.212 24.6455 170.178 26.5791 170.178 28.5225C170.178 30.0361 170.197 31.5303 170.236 33.0049C170.285 34.4795 170.363 35.9639 170.471 37.458L167.512 37.3701C167.121 36.1006 166.735 34.8408 166.354 33.5908C165.983 32.3311 165.612 31.0811 165.241 29.8408C164.87 28.6006 164.489 27.3652 164.099 26.1348C163.718 24.9043 163.322 23.6787 162.912 22.458C162.941 25.0068 162.985 27.5508 163.044 30.0898C163.112 32.6191 163.229 35.1436 163.396 37.6631L160.012 37.6338C160.129 34.5186 160.188 31.3887 160.188 28.2441C160.188 26.3105 160.168 24.3965 160.129 22.502C160.09 20.6074 160.031 18.7031 159.953 16.7891L164.055 16.877C164.553 19.0254 165.085 21.208 165.651 23.4248C166.218 25.6416 166.818 27.8291 167.453 29.9873C167.385 27.7803 167.282 25.5732 167.146 23.3662C167.019 21.1494 166.877 18.9766 166.721 16.8477L170.573 16.877ZM182.087 16.9941C181.306 19.4746 180.573 21.9795 179.89 24.5088C179.216 27.0283 178.576 29.4648 177.971 31.8184V32.7266C177.971 33.2148 177.976 33.6787 177.985 34.1182C178.005 34.5479 178.024 34.9775 178.044 35.4072C178.063 35.8271 178.088 36.2617 178.117 36.7109C178.156 37.1504 178.2 37.6191 178.249 38.1172H174.733C174.812 37.5117 174.88 36.9502 174.938 36.4326C174.997 35.9053 175.041 35.3877 175.07 34.8799C175.109 34.3721 175.139 33.8496 175.158 33.3125C175.178 32.7754 175.188 32.1895 175.188 31.5547C174.914 30.4316 174.626 29.2646 174.323 28.0537C174.03 26.8428 173.728 25.627 173.415 24.4062C173.103 23.1855 172.79 21.9746 172.478 20.7734C172.165 19.5625 171.857 18.3955 171.555 17.2725L175.217 16.9648C175.256 17.7656 175.319 18.6152 175.407 19.5137C175.505 20.4023 175.617 21.3105 175.744 22.2383C175.871 23.166 176.013 24.1035 176.169 25.0508C176.325 25.998 176.486 26.9258 176.652 27.834C176.838 26.9062 177.019 25.9639 177.194 25.0068C177.38 24.04 177.551 23.0879 177.707 22.1504C177.863 21.2129 178.005 20.2998 178.132 19.4111C178.269 18.5225 178.386 17.6875 178.483 16.9062L182.087 16.9941ZM188.356 38.1172C188.308 37.4434 188.259 36.7646 188.21 36.0811C188.171 35.3975 188.122 34.709 188.063 34.0156C187.634 33.9863 187.219 33.957 186.818 33.9277C186.418 33.8984 186.013 33.8838 185.603 33.8838H185.412C185.363 34.5869 185.319 35.2803 185.28 35.9639C185.241 36.6475 185.207 37.3262 185.178 38L181.516 37.9414C182.121 34.4551 182.668 30.9785 183.156 27.5117C183.645 24.0449 184.06 20.5488 184.401 17.0234L188.811 17.0967C189.182 20.583 189.626 24.0498 190.144 27.4971C190.671 30.9346 191.286 34.3965 191.989 37.8828L188.356 38.1172ZM186.643 20.7148C186.447 22.5117 186.262 24.3037 186.086 26.0908C185.91 27.8779 185.749 29.6797 185.603 31.4961C185.808 31.5156 186.018 31.5254 186.232 31.5254C186.447 31.5254 186.667 31.5254 186.892 31.5254H187.844C187.678 29.709 187.492 27.9072 187.287 26.1201C187.082 24.333 186.867 22.5312 186.643 20.7148ZM196.413 16.8477C196.267 18.7031 196.149 20.5439 196.062 22.3701C195.983 24.1865 195.93 26.0078 195.9 27.834C196.594 26.0078 197.243 24.1816 197.849 22.3555C198.454 20.5195 199.045 18.6641 199.621 16.7891L202.829 17.0234C201.999 18.9473 201.208 20.8711 200.456 22.7949C199.704 24.7188 198.996 26.667 198.332 28.6396C198.908 30.1924 199.533 31.7109 200.207 33.1953C200.881 34.6699 201.599 36.1299 202.36 37.5752L199.108 37.9414C198.63 36.5059 198.122 35.0996 197.585 33.7227C197.048 32.3359 196.477 30.9639 195.871 29.6064V31.4229C195.871 33.5615 195.9 35.6855 195.959 37.7949L192.941 37.7656C193 35.7734 193.049 33.7861 193.088 31.8037C193.127 29.8213 193.146 27.8291 193.146 25.8271C193.146 24.333 193.132 22.8438 193.103 21.3594C193.083 19.8652 193.059 18.3613 193.029 16.8477H196.413ZM213.2 27.7461C213.2 29.709 213.063 31.374 212.79 32.7412C212.526 34.1084 212.165 35.2217 211.706 36.0811C211.247 36.9307 210.705 37.5508 210.08 37.9414C209.455 38.3223 208.786 38.5127 208.073 38.5127C207.36 38.5127 206.691 38.332 206.066 37.9707C205.441 37.5996 204.895 36.9941 204.426 36.1543C203.957 35.3145 203.586 34.2061 203.312 32.8291C203.049 31.4521 202.917 29.7578 202.917 27.7461C202.917 25.7246 203.049 24.0107 203.312 22.6045C203.586 21.1885 203.957 20.041 204.426 19.1621C204.895 18.2734 205.441 17.6338 206.066 17.2432C206.691 16.8428 207.36 16.6426 208.073 16.6426C208.786 16.6426 209.455 16.8379 210.08 17.2285C210.705 17.6094 211.247 18.2393 211.706 19.1182C212.165 19.9971 212.526 21.1445 212.79 22.5605C213.063 23.9668 213.2 25.6953 213.2 27.7461ZM209.934 27.7461C209.934 26.2129 209.885 24.9189 209.787 23.8643C209.689 22.8096 209.553 21.9551 209.377 21.3008C209.211 20.6367 209.016 20.1582 208.791 19.8652C208.566 19.5723 208.327 19.4258 208.073 19.4258C207.81 19.4258 207.561 19.5771 207.326 19.8799C207.102 20.1729 206.901 20.6514 206.726 21.3154C206.56 21.9697 206.428 22.8291 206.33 23.8936C206.232 24.9482 206.184 26.2324 206.184 27.7461C206.184 29.25 206.232 30.5146 206.33 31.54C206.428 32.5557 206.56 33.376 206.726 34.001C206.901 34.6162 207.102 35.0557 207.326 35.3193C207.561 35.583 207.81 35.7148 208.073 35.7148C208.327 35.7148 208.566 35.5781 208.791 35.3047C209.016 35.0215 209.211 34.5674 209.377 33.9424C209.553 33.3076 209.689 32.4824 209.787 31.4668C209.885 30.4512 209.934 29.2109 209.934 27.7461ZM224.274 17.2725C223.571 20.7588 222.956 24.2256 222.429 27.6729C221.911 31.1104 221.467 34.5723 221.096 38.0586L216.687 38.1172C216.345 34.6016 215.93 31.1104 215.441 27.6436C214.953 24.1768 214.406 20.7002 213.801 17.2139L217.463 17.1553C217.619 20.085 217.824 22.9805 218.078 25.8418C218.332 28.7031 218.615 31.5742 218.928 34.4551C219.309 31.5449 219.646 28.6445 219.938 25.7539C220.231 22.8535 220.466 19.9434 220.642 17.0234L224.274 17.2725Z" fill="#E1E0E0"/>
<defs>
<clipPath id="clip0">
<rect width="55" height="55" fill="white"/>
</clipPath>
</defs>
</svg>
