<svg width="33" height="33" viewBox="0 0 33 33" fill="none" xmlns="http://www.w3.org/2000/svg">
<g clip-path="url(#clip0)">
<path d="M30.6764 2.88685H18.5501C17.5415 2.88685 16.7238 3.7045 16.7238 4.71319V11.5724C16.7238 12.5811 17.5415 13.3988 18.5501 13.3988H22.8635L22.1665 16.2127C22.0757 16.5793 22.4976 16.8553 22.7972 16.6252L26.9975 13.3988H30.6765C31.6851 13.3988 32.5028 12.5811 32.5028 11.5724V4.71319C32.5028 3.70457 31.685 2.88685 30.6764 2.88685Z" fill="#88DBFD"/>
<path d="M22.7056 14.0361L22.1664 16.2127C22.0756 16.5793 22.4976 16.8553 22.7971 16.6252L26.9974 13.3988H23.5353L22.7056 14.0361Z" fill="#5ABFE9"/>
<path d="M30.6764 2.88685H27.2143C28.223 2.88685 29.0406 3.7045 29.0406 4.71319V11.5724C29.0406 12.581 28.223 13.3988 27.2143 13.3988H30.6764C31.6851 13.3988 32.5028 12.5811 32.5028 11.5724V4.71319C32.5028 3.70457 31.6851 2.88685 30.6764 2.88685Z" fill="#5ABFE9"/>
<path d="M25.967 24.5205C25.8761 22.9708 24.8922 21.7077 23.4278 21.0222C21.6355 20.183 16.7544 18.9132 16.7544 18.9132C16.2827 18.8256 15.9406 18.4141 15.9406 17.9343V15.1441H13.2872H10.6339V17.9343C10.6339 18.4141 10.2918 18.8256 9.82011 18.9132C9.82011 18.9132 4.93902 20.183 3.14664 21.0222C1.68233 21.7077 0.698386 22.9708 0.607507 24.5205L0.497292 31.1725C0.488333 31.9122 1.08549 32.5166 1.82516 32.5166H24.7492C25.4889 32.5166 26.086 31.9122 26.0771 31.1725L25.967 24.5205Z" fill="#FCC18B"/>
<path d="M25.967 24.5205C25.8761 22.9708 24.8922 21.7077 23.4279 21.0222C21.6355 20.183 16.7544 18.9132 16.7544 18.9132C16.2827 18.8256 15.9406 18.4141 15.9406 17.9343V15.1441H13.2872H12.4784V19.6077C12.4784 20.0875 12.8205 20.499 13.2922 20.5866C13.2922 20.5866 18.1733 21.8564 19.9657 22.6955C21.43 23.3811 22.4139 24.6442 22.5048 26.1939L22.6096 32.5166H24.7492C25.4889 32.5166 26.086 31.9122 26.0771 31.1725L25.967 24.5205Z" fill="#EAAB65"/>
<path d="M7.7859 8.08042H7.08923C6.8369 8.08042 6.60441 8.16569 6.41911 8.30891C6.0973 8.5577 5.95608 8.97606 6.02878 9.37631L6.30239 10.8827C6.51476 11.9992 7.78758 11.489 7.78758 11.489L7.7859 8.08042Z" fill="#EAAB65"/>
<path d="M18.7884 8.08042H19.4851C19.7375 8.08042 19.9699 8.16569 20.1553 8.30891C20.4771 8.5577 20.6183 8.97606 20.5456 9.37631L20.272 10.8827C20.0596 11.9992 18.7868 11.489 18.7868 11.489L18.7884 8.08042Z" fill="#FCC18B"/>
<path d="M17.1485 2.35557C16.2426 1.518 14.9692 0.786913 13.2872 0.766739C11.6052 0.786913 10.3318 1.518 9.42595 2.35557C8.2705 3.42388 7.64453 5.01046 7.64453 6.64783L7.64608 12.3566C7.64608 15.0555 11.1541 17.8506 13.2872 17.8506C15.4203 17.8506 18.9283 15.0555 18.9283 12.3566L18.9299 6.64783C18.9298 5.01046 18.3039 3.42388 17.1485 2.35557Z" fill="#FCC18B"/>
<path d="M17.1485 2.35557C16.2426 1.518 14.9693 0.786913 13.2872 0.766739C12.6528 0.774344 12.0766 0.883206 11.5562 1.06065C12.4154 1.35365 13.1222 1.83389 13.6863 2.35557C14.8418 3.42388 15.4677 5.01046 15.4677 6.64783L15.4661 12.3566C15.4661 14.3988 13.4577 16.4956 11.5561 17.3953C12.1676 17.6847 12.7681 17.8506 13.2872 17.8506C15.4203 17.8506 18.9283 15.0555 18.9283 12.3566L18.9299 6.64783C18.9299 5.01046 18.3039 3.42388 17.1485 2.35557Z" fill="#EAAB65"/>
<path d="M16.7778 0.483398H13.2872H9.79661C8.0003 0.483398 6.54417 1.93959 6.54417 3.73583V8.2237C6.54417 8.2237 7.43982 8.20347 8.01532 8.77304C8.1352 8.89163 8.33887 8.80501 8.33887 8.63633V5.119C8.33887 4.325 8.9825 3.68137 9.7765 3.68137H11.0828C11.4254 3.68137 11.7575 3.79983 12.0227 4.01665L12.1508 4.12139C12.4715 4.38359 12.873 4.5268 13.2872 4.5268C13.7014 4.5268 14.1029 4.38359 14.4236 4.12139L14.5517 4.01665C14.8169 3.79983 15.149 3.68137 15.4916 3.68137H16.7979C17.5919 3.68137 18.2355 4.325 18.2355 5.119V8.6364C18.2355 8.80501 18.4392 8.8917 18.5591 8.7731C19.1346 8.20353 20.0302 8.22377 20.0302 8.22377V3.7359C20.0302 1.93959 18.574 0.483398 16.7778 0.483398Z" fill="#426175"/>
<path d="M16.7778 0.483398H15.5703C16.178 1.1987 16.559 2.273 16.5687 3.68137H16.7979C17.5919 3.68137 18.2356 4.325 18.2356 5.119V8.6364C18.2356 8.80501 18.4392 8.8917 18.5591 8.7731C19.1346 8.20353 20.0303 8.22377 20.0303 8.22377V3.7359C20.0302 1.93959 18.574 0.483398 16.7778 0.483398Z" fill="#2C4456"/>
<path d="M23.4278 21.0222C22.3847 20.5339 20.2961 19.8998 18.7317 19.4548L18.3933 19.583C15.1033 20.8292 11.4711 20.8292 8.18114 19.583L7.84276 19.4548C6.27835 19.8998 4.18968 20.5338 3.14664 21.0222C1.68233 21.7077 0.698386 22.9708 0.607507 24.5205L0.497292 31.1726C0.488333 31.9122 1.08549 32.5166 1.82516 32.5166H24.7492C25.4889 32.5166 26.086 31.9122 26.0771 31.1726L25.967 24.5205C25.876 22.9708 24.8921 21.7077 23.4278 21.0222Z" fill="#33BCA5"/>
<path d="M21.4258 30.8497H4.90628C4.40381 30.8497 3.98679 30.4613 3.95102 29.9601L3.27536 20.4806C3.23585 19.9263 3.67491 19.4548 4.23062 19.4548H22.1015C22.6573 19.4548 23.0963 19.9263 23.0568 20.4806L22.3811 29.9601C22.3454 30.4613 21.9283 30.8497 21.4258 30.8497Z" fill="#F2F2F2"/>
<path d="M22.1015 19.4548H18.614C19.1698 19.4548 19.6088 19.9263 19.5693 20.4806L18.8302 30.8497H21.4259C21.9284 30.8497 22.3454 30.4613 22.3811 29.9601L23.0568 20.4806C23.0963 19.9263 22.6573 19.4548 22.1015 19.4548Z" fill="#CDD6DF"/>
<path d="M22.6105 32.5166H3.96392C3.5036 32.5166 3.13048 32.1435 3.13048 31.6832C3.13048 31.2228 3.5036 30.8497 3.96392 30.8497H22.6105C23.0709 30.8497 23.444 31.2228 23.444 31.6832C23.444 32.1435 23.0709 32.5166 22.6105 32.5166Z" fill="#CDD6DF"/>
<path d="M13.2872 26.8684C14.0239 26.8684 14.621 26.2713 14.621 25.5346C14.621 24.7979 14.0239 24.2007 13.2872 24.2007C12.5505 24.2007 11.9533 24.7979 11.9533 25.5346C11.9533 26.2713 12.5505 26.8684 13.2872 26.8684Z" fill="white"/>
<path d="M23.9252 7.53307C23.9252 7.28823 23.6983 7.09711 23.5191 7.09711C23.4774 7.09711 23.4355 7.10305 23.4057 7.12697L21.8887 8.11236C21.7513 8.20198 21.7036 8.34526 21.7036 8.44682C21.7036 8.54837 21.7513 8.69171 21.8887 8.78134L23.4057 9.76673C23.4355 9.79058 23.4773 9.79658 23.5191 9.79658C23.6983 9.79658 23.9252 9.60546 23.9252 9.36056C23.9252 9.25907 23.8835 9.16945 23.8177 9.12766L22.7666 8.44682L23.8177 7.76597C23.8834 7.72419 23.9252 7.63462 23.9252 7.53307Z" fill="black"/>
<path d="M26.9294 5.49059C26.8219 5.49059 26.7263 5.5383 26.6786 5.63986L24.5823 9.94579C24.5644 9.98164 24.5524 10.0234 24.5524 10.0593C24.5524 10.2085 24.6838 10.3758 24.8869 10.3758C25.0004 10.3758 25.1139 10.316 25.1557 10.2265L27.2579 5.92054C27.2758 5.88469 27.2818 5.84291 27.2818 5.80706C27.2817 5.616 27.0966 5.49059 26.9294 5.49059Z" fill="black"/>
<path d="M29.9455 8.11236L28.4286 7.12697C28.3987 7.10305 28.357 7.09711 28.3151 7.09711C28.1359 7.09711 27.909 7.28823 27.909 7.53307C27.909 7.63462 27.9507 7.72419 28.0165 7.76597L29.0676 8.44682L28.0165 9.12766C27.9507 9.16945 27.909 9.25907 27.909 9.36056C27.909 9.60546 28.1359 9.79658 28.3151 9.79658C28.3569 9.79658 28.3987 9.79058 28.4286 9.76673L29.9455 8.78134C30.0829 8.69171 30.1306 8.54844 30.1306 8.44682C30.1306 8.34532 30.0829 8.20198 29.9455 8.11236Z" fill="black"/>
<path d="M30.6894 2.39058H20.2766C19.7387 0.986002 18.3763 -0.0138931 16.7848 -0.0138931H9.80078C7.73999 -0.0138931 6.06337 1.66272 6.06337 3.72351V7.96721C5.64683 8.32618 5.45294 8.88773 5.55559 9.45284L5.83008 10.9637C5.92874 11.4824 6.20426 11.7491 6.41801 11.8814C6.65698 12.0293 6.92218 12.0782 7.16566 12.0793L7.16573 12.3478C7.16573 13.7101 7.96045 15.2114 9.34613 16.4668C9.60701 16.7031 9.87828 16.921 10.1548 17.1181V17.9279C10.1548 18.1748 9.97861 18.3866 9.73591 18.4317C9.72469 18.4338 9.71347 18.4363 9.70244 18.4391C9.694 18.4413 8.86381 18.6577 7.77868 18.9655H4.23239C3.83364 18.9655 3.44915 19.1329 3.17736 19.4246C2.90564 19.7164 2.76604 20.1119 2.79442 20.5097L2.80415 20.6464C1.21787 21.4417 0.220042 22.8677 0.124933 24.4886C0.124546 24.4954 0.124289 24.5021 0.12416 24.5089L0.0138983 31.1659C0.00803064 31.654 0.193734 32.1142 0.536769 32.4614C0.879933 32.8087 1.33774 33 1.82599 33H24.7596C25.2478 33 25.7056 32.8087 26.0487 32.4615C26.3918 32.1142 26.5775 31.6541 26.5716 31.1638L26.4614 24.5089C26.4613 24.5021 26.461 24.4954 26.4606 24.4886C26.3628 22.821 25.3094 21.3594 23.6426 20.5791C23.6119 20.5647 23.58 20.5501 23.547 20.5352L23.5488 20.5097C23.5771 20.112 23.4375 19.7165 23.1659 19.4247C22.8941 19.1329 22.5095 18.9655 22.1108 18.9655H18.8069C17.7219 18.6578 16.8915 18.4414 16.8832 18.4392C16.8721 18.4364 16.8609 18.4338 16.8497 18.4318C16.6069 18.3867 16.4308 18.1749 16.4308 17.928V17.1181C16.7073 16.9211 16.9786 16.7032 17.2395 16.4669C18.1201 15.669 18.7621 14.7718 19.1131 13.8741H22.2551L21.7063 16.0893C21.6148 16.4587 21.7614 16.8322 22.0799 17.0405C22.2295 17.1384 22.3972 17.1869 22.5643 17.1869C22.7531 17.1869 22.9411 17.1249 23.1013 17.0019L27.173 13.8741H30.6893C31.9634 13.8741 33 12.8375 33 11.5634V4.70129C33.0001 3.42716 31.9635 2.39058 30.6894 2.39058ZM19.4208 8.80275C19.6056 8.73969 19.7807 8.71396 19.8949 8.70352C20.0466 8.83821 20.1183 9.06028 20.0785 9.2799L19.8055 10.783C19.7656 10.9928 19.685 11.0427 19.6585 11.059C19.6024 11.0938 19.5196 11.1117 19.4203 11.1128L19.4208 8.80275ZM7.03058 3.72351C7.03058 2.19604 8.2733 0.953311 9.80078 0.953311H16.7848C18.3123 0.953311 19.5551 2.19597 19.5551 3.72351V7.77532C19.3157 7.81762 19.0177 7.89874 18.7268 8.05388V5.10726C18.7268 4.04752 17.8647 3.18542 16.805 3.18542H15.4981C15.0451 3.18542 14.6024 3.34334 14.2516 3.63008L14.1235 3.73486C13.8898 3.92598 13.5947 4.03121 13.2927 4.03121C12.9907 4.03121 12.6957 3.92598 12.462 3.73492L12.3338 3.63001C11.983 3.34334 11.5404 3.18536 11.0874 3.18536H9.78053C8.7208 3.18536 7.8587 4.04746 7.8587 5.10719V8.05381C7.56783 7.89867 7.26986 7.81749 7.03045 7.77526V3.72351H7.03058ZM6.92709 11.0591C6.90058 11.0427 6.82005 10.9929 6.78084 10.7869L6.50713 9.28003C6.46728 9.06054 6.53879 8.83873 6.69031 8.7039C6.80444 8.71422 6.97964 8.73962 7.16469 8.80262L7.16534 11.1128C7.06617 11.1118 6.98331 11.0939 6.92709 11.0591ZM2.64817 31.6825C2.64817 31.8038 2.66468 31.9212 2.69544 32.0328H1.82599C1.59831 32.0328 1.38488 31.9436 1.2249 31.7816C1.06493 31.6197 0.97833 31.4052 0.981038 31.1798L1.09111 24.5354C1.16249 23.3742 1.80606 22.3676 2.87992 21.7092L3.47036 29.9932C3.4812 30.1452 3.51576 30.2905 3.57018 30.4258C3.03635 30.5941 2.64817 31.0938 2.64817 31.6825ZM22.8729 29.9932L23.4729 21.5756C24.6862 22.2267 25.4181 23.2926 25.4945 24.5354L25.6045 31.1777C25.6072 31.4052 25.5206 31.6197 25.3607 31.7816C25.2007 31.9436 24.9872 32.0328 24.7596 32.0328H23.8902C23.921 31.9212 23.9374 31.8038 23.9374 31.6825C23.9374 31.0143 23.4374 30.4608 22.7919 30.3764C22.8355 30.2554 22.8634 30.1269 22.8729 29.9932ZM22.9702 31.6825C22.9702 31.8757 22.8131 32.0328 22.62 32.0328H3.96557C3.77245 32.0328 3.61538 31.8757 3.61538 31.6825C3.61538 31.4895 3.77252 31.3323 3.96557 31.3323H22.6201C22.8132 31.3324 22.9702 31.4895 22.9702 31.6825ZM22.4581 20.0838C22.5488 20.1813 22.5936 20.3081 22.5841 20.4409L21.9081 29.9245C21.8906 30.1716 21.6827 30.3651 21.4349 30.3651H4.90834C4.66054 30.3651 4.45272 30.1716 4.43505 29.9244L3.75911 20.441C3.74963 20.3081 3.79438 20.1813 3.88516 20.0839C3.97595 19.9864 4.09924 19.9328 4.23239 19.9328H22.1109C22.2439 19.9328 22.3673 19.9864 22.4581 20.0838ZM15.8885 18.9655H10.6971C10.9616 18.6964 11.1219 18.3281 11.1219 17.928V17.7116C11.8845 18.1063 12.6422 18.3278 13.2928 18.3278C13.9434 18.3278 14.701 18.1063 15.4636 17.7116V17.928C15.4636 18.3281 15.6239 18.6964 15.8885 18.9655ZM16.5901 15.7501C15.5102 16.7284 14.216 17.3606 13.2928 17.3606C12.3696 17.3606 11.0753 16.7284 9.99551 15.7501C8.81178 14.6777 8.13287 13.4377 8.13287 12.3477L8.13203 9.30086C8.13828 9.30105 8.14454 9.30112 8.15079 9.30112C8.23823 9.30112 8.3265 9.28403 8.41078 9.24882C8.66302 9.14359 8.82596 8.89908 8.82596 8.62601V5.10726C8.82596 4.5809 9.25418 4.15263 9.78059 4.15263H11.0874C11.3179 4.15263 11.5432 4.23297 11.7215 4.37882L11.8498 4.48373C12.2559 4.81561 12.7683 4.99841 13.2927 4.99841C13.8171 4.99841 14.3296 4.81561 14.7358 4.48367L14.8638 4.37889C15.0423 4.23297 15.2675 4.15263 15.4981 4.15263H16.8049C17.3313 4.15263 17.7596 4.5809 17.7596 5.10726V8.62607C17.7596 8.89915 17.9225 9.14366 18.1748 9.24889C18.265 9.28661 18.36 9.30357 18.4534 9.30099L18.4527 12.3479C18.4527 13.4376 17.7738 14.6777 16.5901 15.7501ZM32.0329 11.5634C32.0329 12.3042 31.4302 12.9069 30.6894 12.9069H27.0088C26.9023 12.9069 26.7987 12.9421 26.7143 13.007L22.7031 16.0882L23.3426 13.5068C23.3784 13.3625 23.3457 13.2097 23.254 13.0925C23.1624 12.9754 23.0219 12.9069 22.8732 12.9069H19.3769C19.4054 12.7187 19.4199 12.5321 19.4199 12.348L19.42 12.0794C19.6635 12.0783 19.9287 12.0294 20.1677 11.8815C20.3814 11.7491 20.657 11.4825 20.7564 10.9599L21.0301 9.45284C21.1327 8.88767 20.9387 8.32598 20.5223 7.96728V3.72351C20.5223 3.60016 20.5163 3.47816 20.5045 3.35778H30.6894C31.4302 3.35778 32.0329 3.96048 32.0329 4.70129V11.5634Z" fill="black"/>
<path d="M13.2928 27.3495C14.2952 27.3495 15.1108 26.5339 15.1108 25.5314C15.1108 24.529 14.2952 23.7134 13.2928 23.7134C12.2903 23.7134 11.4747 24.529 11.4747 25.5314C11.4747 26.5339 12.2903 27.3495 13.2928 27.3495ZM13.2928 24.6806C13.7619 24.6806 14.1436 25.0623 14.1436 25.5314C14.1436 26.0006 13.7619 26.3823 13.2928 26.3823C12.8236 26.3823 12.442 26.0006 12.442 25.5314C12.442 25.0623 12.8236 24.6806 13.2928 24.6806Z" fill="black"/>
</g>
<defs>
<clipPath id="clip0">
<rect width="33" height="33" fill="white"/>
</clipPath>
</defs>
</svg>
