<svg width="55" height="55" viewBox="0 0 55 55" fill="none" xmlns="http://www.w3.org/2000/svg">
<g clip-path="url(#clip0)">
<path d="M51.1274 4.81142H30.9169C29.2359 4.81142 27.873 6.17417 27.873 7.85533V19.2874C27.873 20.9684 29.2358 22.3313 30.9169 22.3313H38.1059L36.9441 27.0211C36.7928 27.6323 37.4961 28.0922 37.9953 27.7087L44.9958 22.3313H51.1275C52.8085 22.3313 54.1714 20.9685 54.1714 19.2874V7.85533C54.1713 6.17428 52.8084 4.81142 51.1274 4.81142Z" fill="#88DBFD"/>
<path d="M37.8427 23.3935L36.944 27.0211C36.7927 27.6322 37.496 28.0922 37.9952 27.7087L44.9958 22.3313H39.2255L37.8427 23.3935Z" fill="#5ABFE9"/>
<path d="M51.1274 4.81142H45.3571C47.0383 4.81142 48.401 6.17417 48.401 7.85532V19.2874C48.401 20.9684 47.0383 22.3313 45.3571 22.3313H51.1274C52.8084 22.3313 54.1713 20.9685 54.1713 19.2874V7.85532C54.1713 6.17428 52.8084 4.81142 51.1274 4.81142Z" fill="#5ABFE9"/>
<path d="M43.2783 40.8676C43.1268 38.2847 41.4869 36.1796 39.0464 35.0369C36.0591 33.6383 27.924 31.522 27.924 31.522C27.1379 31.376 26.5677 30.6901 26.5677 29.8906V25.2402H22.1454H17.7232V29.8906C17.7232 30.6901 17.153 31.376 16.3669 31.522C16.3669 31.522 8.23171 33.6383 5.24442 35.0369C2.8039 36.1796 1.164 38.2847 1.01253 40.8676L0.82884 51.9542C0.813909 53.187 1.80917 54.1943 3.04195 54.1943H41.2487C42.4816 54.1943 43.4767 53.187 43.4619 51.9542L43.2783 40.8676Z" fill="#FCC18B"/>
<path d="M43.2783 40.8676C43.1269 38.2847 41.487 36.1796 39.0465 35.0369C36.0592 33.6383 27.924 31.522 27.924 31.522C27.1379 31.376 26.5677 30.6901 26.5677 29.8906V25.2402H22.1454H20.7974V32.6795C20.7974 33.4791 21.3676 34.165 22.1537 34.311C22.1537 34.311 30.2889 36.4273 33.2762 37.8259C35.7167 38.9686 37.3566 41.0737 37.5081 43.6566L37.6826 54.1943H41.2487C42.4816 54.1943 43.4768 53.187 43.4619 51.9542L43.2783 40.8676Z" fill="#EAAB65"/>
<path d="M12.9765 13.4674H11.8154C11.3948 13.4674 11.0074 13.6095 10.6985 13.8482C10.1622 14.2628 9.92682 14.9601 10.048 15.6272L10.504 18.1379C10.858 19.9986 12.9793 19.1484 12.9793 19.1484L12.9765 13.4674Z" fill="#EAAB65"/>
<path d="M31.3141 13.4674H32.4752C32.8958 13.4674 33.2833 13.6095 33.5921 13.8482C34.1285 14.2628 34.3638 14.9601 34.2427 15.6272L33.7866 18.1379C33.4327 19.9986 31.3113 19.1484 31.3113 19.1484L31.3141 13.4674Z" fill="#FCC18B"/>
<path d="M28.5808 3.92596C27.071 2.53001 24.9488 1.31152 22.1454 1.2779C19.342 1.31152 17.2198 2.53001 15.7099 3.92596C13.7842 5.70647 12.7409 8.35077 12.7409 11.0797L12.7435 20.5944C12.7435 25.0925 18.5902 29.7509 22.1454 29.7509C25.7005 29.7509 31.5473 25.0925 31.5473 20.5944L31.5498 11.0797C31.5497 8.35077 30.5064 5.70647 28.5808 3.92596Z" fill="#FCC18B"/>
<path d="M28.5809 3.92596C27.0711 2.53001 24.9488 1.31152 22.1454 1.2779C21.088 1.29058 20.1276 1.47201 19.2603 1.76774C20.6923 2.25608 21.8703 3.05648 22.8106 3.92596C24.7363 5.70647 25.7795 8.35077 25.7795 11.0797L25.7769 20.5944C25.7769 23.9979 22.4295 27.4927 19.2602 28.9922C20.2794 29.4744 21.2803 29.7509 22.1453 29.7509C25.7005 29.7509 31.5472 25.0925 31.5472 20.5944L31.5498 11.0797C31.5498 8.35077 30.5065 5.70647 28.5809 3.92596Z" fill="#EAAB65"/>
<path d="M27.963 0.805664H22.1454H16.3277C13.3339 0.805664 10.907 3.23265 10.907 6.22639V13.7062C10.907 13.7062 12.3997 13.6724 13.3589 14.6217C13.5587 14.8194 13.8981 14.675 13.8981 14.3939V8.53166C13.8981 7.20833 14.9709 6.13562 16.2942 6.13562H18.4713C19.0424 6.13562 19.5958 6.33306 20.0378 6.69442L20.2514 6.86898C20.7858 7.30598 21.455 7.54467 22.1454 7.54467C22.8358 7.54467 23.5049 7.30598 24.0393 6.86898L24.2529 6.69442C24.6949 6.33306 25.2483 6.13562 25.8194 6.13562H27.9965C29.3198 6.13562 30.3926 7.20833 30.3926 8.53166V14.394C30.3926 14.675 30.732 14.8195 30.9318 14.6218C31.891 13.6725 33.3837 13.7063 33.3837 13.7063V6.22649C33.3837 3.23265 30.9567 0.805664 27.963 0.805664Z" fill="#426175"/>
<path d="M27.963 0.805664H25.9505C26.9633 1.99783 27.5984 3.78834 27.6146 6.13562H27.9966C29.3198 6.13562 30.3926 7.20833 30.3926 8.53166V14.394C30.3926 14.675 30.7321 14.8195 30.9319 14.6218C31.8911 13.6725 33.3838 13.7063 33.3838 13.7063V6.22649C33.3837 3.23265 30.9567 0.805664 27.963 0.805664Z" fill="#2C4456"/>
<path d="M39.0463 35.0369C37.3079 34.2231 33.8268 33.1663 31.2195 32.4248L30.6555 32.6384C25.1721 34.7154 19.1185 34.7154 13.6352 32.6384L13.0713 32.4248C10.4639 33.1663 6.98282 34.223 5.24442 35.0369C2.8039 36.1796 1.164 38.2847 1.01253 40.8676L0.82884 51.9543C0.813909 53.187 1.80917 54.1943 3.04195 54.1943H41.2487C42.4816 54.1943 43.4767 53.187 43.4619 51.9543L43.2783 40.8676C43.1267 38.2847 41.4868 36.1796 39.0463 35.0369Z" fill="#33BCA5"/>
<path d="M35.7097 51.4162H8.17716C7.3397 51.4162 6.64468 50.7689 6.58506 49.9336L5.45895 34.1344C5.39311 33.2106 6.12486 32.4248 7.05105 32.4248H36.8359C37.7621 32.4248 38.4939 33.2106 38.428 34.1344L37.3019 49.9336C37.2423 50.7689 36.5472 51.4162 35.7097 51.4162Z" fill="#F2F2F2"/>
<path d="M36.8359 32.4248H31.0234C31.9496 32.4248 32.6814 33.2106 32.6155 34.1344L31.3837 51.4162H35.7098C36.5473 51.4162 37.2424 50.7689 37.3019 49.9336L38.428 34.1344C38.4938 33.2106 37.7621 32.4248 36.8359 32.4248Z" fill="#CDD6DF"/>
<path d="M37.6842 54.1943H6.60656C5.83935 54.1943 5.21748 53.5725 5.21748 52.8053C5.21748 52.0381 5.83935 51.4162 6.60656 51.4162H37.6842C38.4514 51.4162 39.0733 52.0381 39.0733 52.8053C39.0733 53.5725 38.4514 54.1943 37.6842 54.1943Z" fill="#CDD6DF"/>
<path d="M22.1453 44.7807C23.3731 44.7807 24.3684 43.7854 24.3684 42.5576C24.3684 41.3299 23.3731 40.3345 22.1453 40.3345C20.9175 40.3345 19.9222 41.3299 19.9222 42.5576C19.9222 43.7854 20.9175 44.7807 22.1453 44.7807Z" fill="white"/>
<path d="M39.8754 12.5551C39.8754 12.1471 39.4971 11.8285 39.1986 11.8285C39.1289 11.8285 39.0592 11.8384 39.0094 11.8783L36.4812 13.5206C36.2523 13.67 36.1726 13.9088 36.1726 14.078C36.1726 14.2473 36.2523 14.4862 36.4812 14.6356L39.0094 16.2779C39.0592 16.3176 39.1288 16.3276 39.1986 16.3276C39.4971 16.3276 39.8754 16.0091 39.8754 15.6009C39.8754 15.4318 39.8058 15.2824 39.6963 15.2128L37.9443 14.078L39.6963 12.9433C39.8057 12.8736 39.8754 12.7244 39.8754 12.5551Z" fill="black"/>
<path d="M44.8823 9.15097C44.7032 9.15097 44.5439 9.2305 44.4643 9.39976L40.9705 16.5763C40.9406 16.6361 40.9206 16.7057 40.9206 16.7655C40.9206 17.0142 41.1397 17.293 41.4782 17.293C41.6673 17.293 41.8565 17.1934 41.9261 17.0442L45.4299 9.86756C45.4596 9.80781 45.4696 9.73817 45.4696 9.67842C45.4695 9.35999 45.161 9.15097 44.8823 9.15097Z" fill="black"/>
<path d="M49.9092 13.5206L47.381 11.8783C47.3313 11.8384 47.2616 11.8285 47.1919 11.8285C46.8932 11.8285 46.5149 12.1471 46.5149 12.5551C46.5149 12.7244 46.5846 12.8736 46.6942 12.9433L48.446 14.078L46.6942 15.2128C46.5846 15.2824 46.5149 15.4318 46.5149 15.6009C46.5149 16.0091 46.8932 16.3276 47.1919 16.3276C47.2615 16.3276 47.3313 16.3176 47.381 16.2779L49.9092 14.6356C50.1382 14.4862 50.2177 14.2474 50.2177 14.078C50.2177 13.9089 50.1382 13.67 49.9092 13.5206Z" fill="black"/>
<path d="M51.1489 3.98429H33.7944C32.8978 1.64334 30.6272 -0.0231552 27.9746 -0.0231552H16.3346C12.9 -0.0231552 10.1056 2.7712 10.1056 6.20585V13.2787C9.41139 13.877 9.08824 14.8129 9.25933 15.7547L9.71681 18.2729C9.88124 19.1374 10.3404 19.5818 10.6967 19.8024C11.095 20.0489 11.537 20.1304 11.9428 20.1322L11.9429 20.5797C11.9429 22.8501 13.2674 25.3523 15.5769 27.4447C16.0117 27.8385 16.4638 28.2017 16.9246 28.5301V29.8799C16.9246 30.2913 16.631 30.6443 16.2265 30.7195C16.2078 30.723 16.1891 30.7272 16.1708 30.7319C16.1567 30.7355 14.773 31.0962 12.9645 31.6091H7.05399C6.38942 31.6091 5.74859 31.8881 5.29562 32.3744C4.84275 32.8607 4.61008 33.5199 4.65737 34.1828L4.6736 34.4106C2.0298 35.7361 0.366746 38.1128 0.208232 40.8143C0.207588 40.8256 0.207158 40.8369 0.206943 40.8482L0.0231741 51.9432C0.0133946 52.7567 0.3229 53.5236 0.894625 54.1023C1.46656 54.6812 2.22958 55 3.04332 55H41.266C42.0797 55 42.8427 54.6812 43.4145 54.1024C43.9864 53.5236 44.2959 52.7568 44.286 51.9397L44.1023 40.8482C44.1021 40.8369 44.1017 40.8256 44.101 40.8143C43.938 38.0349 42.1823 35.5991 39.4044 34.2985C39.3532 34.2745 39.3 34.2501 39.245 34.2253L39.248 34.1829C39.2952 33.52 39.0625 32.8608 38.6098 32.3745C38.1568 31.8882 37.5159 31.6092 36.8514 31.6092H31.3449C29.5364 31.0963 28.1526 30.7356 28.1386 30.732C28.1201 30.7273 28.1015 30.7231 28.0828 30.7196C27.6782 30.6445 27.3847 30.2915 27.3847 29.88V28.5302C27.8455 28.2018 28.2977 27.8387 28.7325 27.4448C30.2003 26.115 31.2702 24.6197 31.8551 23.1235H37.0918L36.1772 26.8155C36.0247 27.4311 36.269 28.0536 36.7999 28.4008C37.0491 28.5639 37.3287 28.6449 37.6071 28.6449C37.9219 28.6449 38.2353 28.5415 38.5021 28.3365L45.2884 23.1235H51.1488C53.2724 23.1235 55 21.3959 55 19.2723V7.83548C55.0001 5.71193 53.2725 3.98429 51.1489 3.98429ZM32.3681 14.6712C32.6761 14.5661 32.9679 14.5233 33.1582 14.5059C33.4111 14.7304 33.5306 15.1005 33.4641 15.4665L33.0091 17.9717C32.9427 18.3214 32.8084 18.4044 32.7642 18.4317C32.6706 18.4897 32.5326 18.5195 32.3672 18.5213L32.3681 14.6712ZM11.7176 6.20585C11.7176 3.66006 13.7888 1.58885 16.3346 1.58885H27.9747C30.5205 1.58885 32.5918 3.65996 32.5918 6.20585V12.9589C32.1928 13.0294 31.6962 13.1646 31.2114 13.4231V8.5121C31.2114 6.74587 29.7746 5.30904 28.0084 5.30904H25.8302C25.0752 5.30904 24.3374 5.57223 23.7527 6.05013L23.5392 6.22477C23.1497 6.5433 22.6579 6.71869 22.1545 6.71869C21.6512 6.71869 21.1595 6.5433 20.77 6.22487L20.5563 6.05002C19.9718 5.57223 19.234 5.30893 18.4789 5.30893H16.3009C14.5347 5.30893 13.0978 6.74577 13.0978 8.51199V13.423C12.6131 13.1645 12.1164 13.0292 11.7174 12.9588V6.20585H11.7176ZM11.5452 18.4318C11.501 18.4045 11.3668 18.3215 11.3014 17.9782L10.8452 15.4667C10.7788 15.1009 10.898 14.7312 11.1505 14.5065C11.3407 14.5237 11.6327 14.566 11.9412 14.671L11.9422 18.5214C11.777 18.5196 11.6389 18.4898 11.5452 18.4318ZM4.41363 52.8042C4.41363 53.0063 4.44115 53.202 4.49241 53.388H3.04332C2.66386 53.388 2.30814 53.2394 2.04151 52.9694C1.77489 52.6996 1.63056 52.342 1.63507 51.9663L1.81852 40.8924C1.93749 38.957 3.01011 37.2793 4.79987 36.1821L5.78395 49.9886C5.802 50.242 5.8596 50.4842 5.95031 50.7096C5.06059 50.9902 4.41363 51.823 4.41363 52.8042ZM38.1214 49.9887L39.1214 35.9594C41.1436 37.0445 42.3635 38.8209 42.4908 40.8923L42.6742 51.9628C42.6787 52.342 42.5344 52.6996 42.2678 52.9694C42.0012 53.2394 41.6454 53.388 41.266 53.388H39.817C39.8683 53.2021 39.8957 53.0063 39.8957 52.8042C39.8957 51.6905 39.0623 50.768 37.9865 50.6273C38.0592 50.4257 38.1056 50.2115 38.1214 49.9887ZM38.2837 52.8042C38.2837 53.1261 38.0218 53.388 37.7001 53.388H6.6093C6.28743 53.388 6.02564 53.1261 6.02564 52.8042C6.02564 52.4825 6.28754 52.2206 6.6093 52.2206H37.7002C38.0219 52.2207 38.2837 52.4825 38.2837 52.8042ZM37.4301 33.473C37.5813 33.6355 37.656 33.8468 37.6401 34.0682L36.5135 49.8741C36.4843 50.2859 36.1378 50.6086 35.7248 50.6086H8.18057C7.76758 50.6086 7.42121 50.2859 7.39176 49.874L6.26519 34.0683C6.24939 33.8468 6.32397 33.6355 6.47528 33.4732C6.6266 33.3107 6.83207 33.2213 7.05399 33.2213H36.8515C37.0732 33.2213 37.2789 33.3107 37.4301 33.473ZM26.4808 31.6092H17.8284C18.2694 31.1607 18.5365 30.5468 18.5365 29.88V29.5193C19.8075 30.1771 21.0703 30.5463 22.1546 30.5463C23.239 30.5463 24.5017 30.1772 25.7727 29.5193V29.88C25.7727 30.5468 26.0399 31.1607 26.4808 31.6092ZM27.6502 26.2502C25.8504 27.8807 23.6933 28.9343 22.1546 28.9343C20.616 28.9343 18.4588 27.8807 16.6592 26.2502C14.6863 24.4628 13.5548 22.3961 13.5548 20.5796L13.5534 15.5014C13.5638 15.5018 13.5742 15.5019 13.5847 15.5019C13.7304 15.5019 13.8775 15.4734 14.018 15.4147C14.4384 15.2393 14.7099 14.8318 14.7099 14.3767V8.5121C14.7099 7.63484 15.4236 6.92105 16.301 6.92105H18.479C18.8632 6.92105 19.2386 7.05495 19.5359 7.29804L19.7497 7.47289C20.4264 8.02602 21.2805 8.33069 22.1545 8.33069C23.0285 8.33069 23.8827 8.02602 24.5596 7.47278L24.7731 7.29815C25.0705 7.05495 25.4459 6.92105 25.8301 6.92105H28.0083C28.8855 6.92105 29.5993 7.63484 29.5993 8.5121V14.3768C29.5993 14.8319 29.8709 15.2394 30.2913 15.4148C30.4417 15.4777 30.5999 15.5059 30.7558 15.5016L30.7545 20.5798C30.7546 22.396 29.6229 24.4628 27.6502 26.2502ZM53.3881 19.2723C53.3881 20.507 52.3836 21.5115 51.1489 21.5115H45.0147C44.8372 21.5115 44.6645 21.5702 44.5238 21.6783L37.8385 26.8136L38.9043 22.5114C38.964 22.2708 38.9095 22.0161 38.7567 21.8208C38.604 21.6257 38.3698 21.5115 38.122 21.5115H32.2948C32.3423 21.1978 32.3666 20.8868 32.3666 20.58L32.3667 20.1323C32.7725 20.1305 33.2145 20.049 33.6129 19.8025C33.969 19.5819 34.4283 19.1375 34.5939 18.2665L35.0501 15.7547C35.2212 14.8128 34.8979 13.8766 34.2038 13.2788V6.20585C34.2038 6.00027 34.1938 5.79694 34.1742 5.5963H51.1489C52.3836 5.5963 53.3881 6.60079 53.3881 7.83548V19.2723Z" fill="black"/>
<path d="M22.1546 45.5824C23.8254 45.5824 25.1847 44.2232 25.1847 42.5524C25.1847 40.8816 23.8254 39.5224 22.1546 39.5224C20.4838 39.5224 19.1246 40.8816 19.1246 42.5524C19.1246 44.2232 20.4838 45.5824 22.1546 45.5824ZM22.1546 41.1344C22.9366 41.1344 23.5727 41.7705 23.5727 42.5524C23.5727 43.3343 22.9366 43.9704 22.1546 43.9704C21.3727 43.9704 20.7366 43.3343 20.7366 42.5524C20.7366 41.7705 21.3727 41.1344 22.1546 41.1344Z" fill="black"/>
</g>
<defs>
<clipPath id="clip0">
<rect width="55" height="55" fill="white"/>
</clipPath>
</defs>
</svg>
